HIERARCHY
ROOT root
{
	OFFSET	0	13.1	24.9
	CHANNELS 6  Xposition Yposition Zposition Xrotation Yrotation Zrotation
	JOINT spine_1
	{
		OFFSET	0	9.99999	0
		CHANNELS 3  Xrotation Yrotation Zrotation
		JOINT spine_2
		{
			OFFSET	0	112	-10
			CHANNELS 3  Xrotation Yrotation Zrotation
			JOINT spine_3
			{
				OFFSET	0	206.5	19.3
				CHANNELS 3  Xrotation Yrotation Zrotation
				JOINT spine_4
				{
					OFFSET	0	110.4	14.6
					CHANNELS 3  Xrotation Yrotation Zrotation
					JOINT neck_1
					{
						OFFSET	0	71.8	-50.3
						CHANNELS 3  Xrotation Yrotation Zrotation
						JOINT neck_2
						{
							OFFSET	0	86.2	-25.8
							CHANNELS 3  Xrotation Yrotation Zrotation
							JOINT head_ee
							{
								OFFSET	0	179.8	-8.7
								CHANNELS 3  Xrotation Yrotation Zrotation
								End Site
								{
									OFFSET	1	0	0
								}
							}
						}
					}
					JOINT left_clavicle
					{
						OFFSET	-43.2	22.4	-70.8
						CHANNELS 3  Xrotation Yrotation Zrotation
						JOINT left_shoulder
						{
							OFFSET	-93.9	-5.79999	48.7
							CHANNELS 3  Xrotation Yrotation Zrotation
							JOINT left_elbow
							{
								OFFSET	-291.4	-30.8	15.2
								CHANNELS 3  Xrotation Yrotation Zrotation
								JOINT left_lowarm_twist
								{
									OFFSET	-110.7	-3.89999	13.6
									CHANNELS 3  Xrotation Yrotation Zrotation
									JOINT left_hand
									{
										OFFSET	-110.7	-3.89999	13.6
										CHANNELS 3  Xrotation Yrotation Zrotation
										JOINT left_ee
										{
											OFFSET	-80.8	-5.10001	12.1
											CHANNELS 3  Xrotation Yrotation Zrotation
											End Site
											{
												OFFSET	1	0	0
											}
										}
									}
								}
							}
						}
					}
					JOINT right_clavicle
					{
						OFFSET	43.2	22.4	-70.8
						CHANNELS 3  Xrotation Yrotation Zrotation
						JOINT right_shoulder
						{
							OFFSET	93.9	-5.79999	48.7
							CHANNELS 3  Xrotation Yrotation Zrotation
							JOINT right_elbow
							{
								OFFSET	291.4	-30.8	15.2
								CHANNELS 3  Xrotation Yrotation Zrotation
								JOINT right_lowarm_twist
								{
									OFFSET	110.7	-3.89999	13.6
									CHANNELS 3  Xrotation Yrotation Zrotation
									JOINT right_hand
									{
										OFFSET	110.7	-3.89999	13.6
										CHANNELS 3  Xrotation Yrotation Zrotation
										JOINT right_ee
										{
											OFFSET	80.8	-5.10001	12.1
											CHANNELS 3  Xrotation Yrotation Zrotation
											End Site
											{
												OFFSET	1	0	0
											}
										}
									}
								}
							}
						}
					}
				}
			}
		}
	}
	JOINT left_hip
	{
		OFFSET	-82.8	-127.5	0.300001
		CHANNELS 3  Xrotation Yrotation Zrotation
		JOINT left_knee
		{
			OFFSET	-28.2	-396.7	2.2
			CHANNELS 3  Xrotation Yrotation Zrotation
			JOINT left_ankle
			{
				OFFSET	-11.7	-411.3	35.4
				CHANNELS 3  Xrotation Yrotation Zrotation
				JOINT left_toes
				{
					OFFSET	0	-60	-88.6
					CHANNELS 3  Xrotation Yrotation Zrotation
					JOINT left_foot_ee
					{
						OFFSET	-22.5	-16.5	-42.2
						CHANNELS 3  Xrotation Yrotation Zrotation
						End Site
						{
							OFFSET	1	0	0
						}
					}
				}
			}
		}
	}
	JOINT right_hip
	{
		OFFSET	82.8	-127.5	0.300001
		CHANNELS 3  Xrotation Yrotation Zrotation
		JOINT right_knee
		{
			OFFSET	28.2	-396.7	2.2
			CHANNELS 3  Xrotation Yrotation Zrotation
			JOINT right_ankle
			{
				OFFSET	11.7	-411.3	35.4
				CHANNELS 3  Xrotation Yrotation Zrotation
				JOINT right_toes
				{
					OFFSET	0	-60	-88.6
					CHANNELS 3  Xrotation Yrotation Zrotation
					JOINT right_foot_ee
					{
						OFFSET	22.5	-16.5	-42.2
						CHANNELS 3  Xrotation Yrotation Zrotation
						End Site
						{
							OFFSET	1	0	0
						}
					}
				}
			}
		}
	}
}
MOTION
Frames: 5
Frame Time: 0.02
1372.05 701.618 -1475.22 -34.2688843922 60.4808500969 39.2168835472 7.41324 -0.228993 -2.01439 7.41549 -0.100374 -2.02487 7.41561 0.0664887 -2.02627 7.40997 -0.254291 -2.01135 -19.7668 -17.2026 -8.16074 -20.8488 -29.0348 -15.0495 -0.0 0.0 -0.0 4.72199 0.779247 9.1474 -8.91079 -37.7127 70.4649 4.22407 -64.4372 2.66268 -85.6864 -8.53761 5.1672 -1.42328 -4.2316 -11.4512 -0.0 0.0 -0.0 -1.28857 -22.0898 -0.749565 -34.3174 14.1873 -74.3525 0.972606 25.7243 -0.222086 -8.61597 0.382022 -1.0321 1.46724 -25.2657 -18.6001 0.0 0.0 0.0 6.5677 -24.6859 -10.5612 -25.5095 0.189709 3.87784 36.8479 6.76991 -4.57573 -4.27173 0.0 0.0 -0.0 0.0 -0.0 35.865 -20.4525 -6.57183 4.2306 0.197191 0.619005 9.74062 -19.0602 1.41243 19.8644 -0.0 -0.0 0.0 0.0 0.0 
1372.05 701.618 -1475.22 -33.823142154 60.1044530949 38.7036950336 7.41324 -0.228993 -2.01439 7.41549 -0.100374 -2.02487 7.41561 0.0664887 -2.02627 7.40997 -0.254291 -2.01135 -19.7668 -17.2026 -8.16074 -20.8488 -29.0348 -15.0495 -0.0 0.0 -0.0 4.72199 0.779247 9.1474 -8.91079 -37.7127 70.4649 4.22407 -64.4372 2.66268 -85.6864 -8.53761 5.1672 -1.42328 -4.2316 -11.4512 -0.0 0.0 -0.0 -1.28857 -22.0898 -0.749565 -34.3174 14.1873 -74.3525 0.972606 25.7243 -0.222086 -8.61597 0.382022 -1.0321 1.46724 -25.2657 -18.6001 0.0 0.0 0.0 6.5677 -24.6859 -10.5612 -25.5095 0.189709 3.87784 36.8479 6.76991 -4.57573 -4.27173 0.0 0.0 -0.0 0.0 -0.0 35.865 -20.4525 -6.57183 4.2306 0.197191 0.619005 9.74062 -19.0602 1.41243 19.8644 -0.0 -0.0 0.0 0.0 0.0 
1353.70244323 699.987 -1494.47262737 -35.7289095328 61.3123322303 40.5044454039 7.42645 -0.351955 -1.81686 7.42825 -0.23565 -1.83556 7.43297 -0.0845341 -1.84869 7.4284 -0.375392 -1.81216 -19.6742 -16.3867 -8.11629 -20.6002 -27.4662 -14.5737 -0.0 0.0 -0.0 4.36176 0.0467971 8.42042 -11.5735 -37.1776 69.7169 3.92393 -62.7586 2.39382 -85.2243 -8.47995 5.17902 -1.68711 -1.92969 -12.2254 -0.0 0.0 -0.0 -1.38452 -22.6222 -0.694363 -34.8971 15.6498 -73.3184 1.03865 27.226 -0.251533 -8.42436 0.37185 -1.0098 1.64048 -23.0318 -19.0279 0.0 0.0 0.0 6.37247 -25.2141 -10.4296 -27.2834 0.138493 4.14526 37.1154 8.46137 -4.60609 -4.35524 0.0 0.0 -0.0 0.0 -0.0 35.1846 -20.6696 -6.96919 3.03702 0.136926 0.445833 10.6558 -19.7308 1.54421 20.7788 -0.0 -0.0 0.0 0.0 0.0 
1353.97136842 699.987 -1494.72537311 -34.9001374648 60.6635261881 39.5567750684 7.42645 -0.351955 -1.81686 7.42825 -0.23565 -1.83556 7.43297 -0.0845341 -1.84869 7.4284 -0.375392 -1.81216 -19.6742 -16.3867 -8.11629 -20.6002 -27.4662 -14.5737 -0.0 0.0 -0.0 4.36176 0.0467971 8.42042 -11.5735 -37.1776 69.7169 3.92393 -62.7586 2.39382 -85.2243 -8.47995 5.17902 -1.68711 -1.92969 -12.2254 -0.0 0.0 -0.0 -1.38452 -22.6222 -0.694363 -34.8971 15.6498 -73.3184 1.03865 27.226 -0.251533 -8.42436 0.37185 -1.0098 1.64048 -23.0318 -19.0279 0.0 0.0 0.0 6.37247 -25.2141 -10.4296 -27.2834 0.138493 4.14526 37.1154 8.46137 -4.60609 -4.35524 0.0 0.0 -0.0 0.0 -0.0 35.1846 -20.6696 -6.96919 3.03702 0.136926 0.445833 10.6558 -19.7308 1.54421 20.7788 -0.0 -0.0 0.0 0.0 0.0 
1332.16338114 699.034 -1519.73163147 -36.0342473713 62.2032149362 40.6268543642 7.43027 -0.59928 -1.52379 7.43142 -0.501115 -1.55882 7.44311 -0.372153 -1.59453 7.4401 -0.619281 -1.51577 -19.4612 -15.1961 -7.88876 -20.1924 -25.2472 -13.7361 -0.0 0.0 -0.0 4.00489 -1.19735 7.66453 -14.5402 -36.4497 68.8402 3.55092 -60.3667 2.06574 -84.4594 -8.38429 5.19754 -2.04985 1.33449 -13.1956 -0.0 0.0 -0.0 -1.59054 -23.6189 -0.562823 -35.8654 17.7 -71.7754 1.12578 29.1466 -0.292693 -8.15301 0.357573 -0.978169 1.88373 -19.8736 -19.6471 0.0 0.0 0.0 6.10992 -25.9747 -10.2439 -29.7544 0.0533949 4.51491 37.5028 10.871 -4.65702 -4.47435 0.0 0.0 -0.0 0.0 -0.0 34.2337 -20.9694 -7.53724 1.34415 0.0576797 0.198193 11.8197 -20.6907 1.71254 22.0323 -0.0 -0.0 0.0 0.0 0.0 
